<svg xmlns="http://www.w3.org/2000/svg" viewBox="-200 -160 400 450" width="100%" height="100%">
  <g fill="#000000">
    <polygon points="0,-124 24,-100 0,-76 -24,-100"/>
    <polygon points="0,76 24,100 0,124 -24,100"/>
    <polygon points="0,-24 24,0 0,24 -24,0"/>
    <polygon points="-100,-24 -76,0 -100,24 -124,0"/>
    <polygon points="100,-24 124,0 100,24 76,0"/>
    <polygon points="-50,-74 -26,-50 -50,-26 -74,-50"/>
    <polygon points="-50,26 -26,50 -50,74 -74,50"/>
    <rect x="-58" y="-50" width="16" height="100"/>
    <polygon points="50,-74 74,-50 50,-26 26,-50"/>
    <polygon points="50,26 74,50 50,74 26,50"/>
    <rect x="42" y="-50" width="16" height="100"/>
  </g>
  <g fill="#000000" transform="translate(-162, 170)">
    <path d="M 0,0 H 6 V 19 H 34 V 0 H 40 V 44 H 34 V 25 H 6 V 44 H 0 Z" />
    <path fill-rule="evenodd" d="M 74,0 A 20,20 0 1,0 74,44 A 20,20 0 1,0 74,0 Z M 74,6 A 14,14 0 1,0 74,38 A 14,14 0 1,0 74,6 Z" />
    <path d="M 108,0 H 114 L 133,33 L 152,0 H 158 V 44 H 152 V 12 L 133,44 L 114,12 V 44 H 108 Z" />
    <path d="M 191,0 H 197 L 216,44 H 210 L 194,12 L 178,44 H 172 Z" />
    <path d="M 230,0 H 236 V 24 C 236,31.7 242.3,38 250,38 C 257.7,38 264,31.7 264,24 V 0 H 270 V 24 C 270,35 261,44 250,44 C 239,44 230,35 230,24 Z" />
    <path d="M 284,0 H 324 V 6 H 307 V 44 H 301 V 6 H 284 Z" />
  </g>
  <text x="0" y="255" font-family="'Montserrat', 'Helvetica Neue', 'Arial', sans-serif" font-weight="600" font-size="22" letter-spacing="0.55em" fill="#000000" text-anchor="middle">AUTOMAÇÃO</text>
</svg>
